<?xml version="1.0" encoding="UTF-8" standalone="no"?>
<!-- Created with Inkscape (http://www.inkscape.org/) -->

<svg
   width="270.93332mm"
   height="270.93332mm"
   viewBox="0 0 270.93332 270.93332"
   version="1.1"
   id="svg5"
   xml:space="preserve"
   inkscape:version="1.2.2 (732a01da63, 2022-12-09)"
   sodipodi:docname="Coin Pool Cleaned Up.svg"
   inkscape:export-filename="Coin Pool Cleaned Up.png"
   inkscape:export-xdpi="96"
   inkscape:export-ydpi="96"
   xmlns:inkscape="http://www.inkscape.org/namespaces/inkscape"
   xmlns:sodipodi="http://sodipodi.sourceforge.net/DTD/sodipodi-0.dtd"
   xmlns="http://www.w3.org/2000/svg"
   xmlns:svg="http://www.w3.org/2000/svg"><sodipodi:namedview
     id="namedview7"
     pagecolor="#505050"
     bordercolor="#eeeeee"
     borderopacity="1"
     inkscape:showpageshadow="0"
     inkscape:pageopacity="0"
     inkscape:pagecheckerboard="0"
     inkscape:deskcolor="#505050"
     inkscape:document-units="mm"
     showgrid="false"
     inkscape:zoom="0.70710678"
     inkscape:cx="379.00924"
     inkscape:cy="522.55191"
     inkscape:window-width="1920"
     inkscape:window-height="991"
     inkscape:window-x="-9"
     inkscape:window-y="-9"
     inkscape:window-maximized="1"
     inkscape:current-layer="layer1"
     showguides="false" /><defs
     id="defs2"><filter
       inkscape:collect="always"
       style="color-interpolation-filters:sRGB"
       id="filter30457"
       x="-0.073811779"
       y="-0.091999482"
       width="1.1476236"
       height="1.183999"><feGaussianBlur
         inkscape:collect="always"
         stdDeviation="0.84160162"
         id="feGaussianBlur30459" /></filter><filter
       inkscape:collect="always"
       style="color-interpolation-filters:sRGB"
       id="filter30457-4"
       x="-0.073811779"
       y="-0.091999482"
       width="1.1476236"
       height="1.183999"><feGaussianBlur
         inkscape:collect="always"
         stdDeviation="0.84160162"
         id="feGaussianBlur30459-2" /></filter><filter
       inkscape:collect="always"
       style="color-interpolation-filters:sRGB"
       id="filter30457-3"
       x="-0.07375661"
       y="-0.091930576"
       width="1.1475132"
       height="1.1838612"><feGaussianBlur
         inkscape:collect="always"
         stdDeviation="0.84072162"
         id="feGaussianBlur30459-1" /></filter><filter
       inkscape:collect="always"
       style="color-interpolation-filters:sRGB"
       id="filter30457-7"
       x="-0.073811893"
       y="-0.091999482"
       width="1.1476238"
       height="1.183999"><feGaussianBlur
         inkscape:collect="always"
         stdDeviation="0.84160162"
         id="feGaussianBlur30459-5" /></filter><filter
       inkscape:collect="always"
       style="color-interpolation-filters:sRGB"
       id="filter30457-1"
       x="-0.073811893"
       y="-0.091999482"
       width="1.1476238"
       height="1.183999"><feGaussianBlur
         inkscape:collect="always"
         stdDeviation="0.84160162"
         id="feGaussianBlur30459-9" /></filter><filter
       inkscape:collect="always"
       style="color-interpolation-filters:sRGB"
       id="filter30675"
       x="-0.062279532"
       y="-0.15165716"
       width="1.1245591"
       height="1.2523215"><feGaussianBlur
         inkscape:collect="always"
         stdDeviation="0.65802991"
         id="feGaussianBlur30677" /></filter></defs><g
     inkscape:label="Layer 1"
     inkscape:groupmode="layer"
     id="layer1"><path
       style="fill:#fecc53;fill-opacity:0.99607843;stroke:none;stroke-width:6.1;stroke-linecap:round;stroke-linejoin:round;stroke-dasharray:none;stroke-opacity:1;paint-order:markers stroke fill;stop-color:#000000"
       d="m 206.70607,98.587385 -0.14842,9.499025 9.88382,9.34127 v 7.01824 l 10.06458,61.36735 -190.288751,0.17481 8.46417,-87.400695 H 206.70607"
       id="path1100"
       sodipodi:nodetypes="cccccccc" /><path
       style="color:#000000;fill:none;fill-opacity:1;stroke:#fffe76;stroke-width:1.6;stroke-linecap:round;stroke-linejoin:round;stroke-dasharray:none;stroke-opacity:1;paint-order:markers stroke fill;filter:url(#filter30457)"
       d="m 84.507816,107.88867 c -4.902933,0 -9.369818,1.03668 -12.84375,2.91016 -3.422179,1.84556 -6.147285,4.77754 -6.228515,8.54297 a 2.8499999,2.8499999 0 0 0 -0.0293,0.0703 v 0.0918 7.41992 a 2.8499999,2.8499999 0 0 0 0.04102,0.10156 2.8499999,2.8499999 0 0 0 -0.03906,0.10352 c 0.1037,3.82733 2.917687,6.74052 6.404297,8.58007 3.48661,1.83955 7.946541,2.8493 12.824219,2.83008 4.87768,-0.0192 9.314661,-1.06187 12.763672,-2.93554 3.449001,-1.87368 6.207021,-4.85084 6.207021,-8.67969 v -7.4082 c 10e-6,-0.004 0.002,-0.008 0.002,-0.0117 -1e-5,-0.004 -0.002,-0.008 -0.002,-0.0117 v -0.0801 a 2.8499999,2.8499999 0 0 0 -0.15429,-0.7793 c -0.3975,-3.41149 -2.90566,-6.11044 -6.10156,-7.83398 -3.473931,-1.87348 -7.940815,-2.91016 -12.84375,-2.91016 z m 0,5.70117 c 4.072283,0 7.730874,0.9261 10.138672,2.22461 2.407799,1.29852 3.261719,2.69733 3.261719,3.68946 2e-6,0.99211 -0.85392,2.39092 -3.261719,3.68944 -2.407798,1.29852 -6.066386,2.22462 -10.138672,2.22462 -4.072285,0 -7.730873,-0.9261 -10.138671,-2.22462 -2.407799,-1.29852 -3.261721,-2.69733 -3.261719,-3.68944 0,-0.99213 0.85392,-2.39094 3.261719,-3.68946 2.407798,-1.29851 6.066389,-2.22461 10.138671,-2.22461 z m 12.869141,14.60352 c -0.452879,0.76684 -1.192819,1.5831 -2.697266,2.40039 -2.385002,1.29565 -6.01348,2.22818 -10.064453,2.24413 -4.050971,0.016 -7.709938,-0.88644 -10.142578,-2.16991 -1.569417,-0.82804 -2.339992,-1.6714 -2.8125,-2.46094 0.0013,7e-4 0.0026,0.001 0.0039,0.002 3.473933,1.87348 7.940813,2.90821 12.84375,2.90821 4.902938,0 9.369818,-1.03473 12.84375,-2.90821 0.0088,-0.005 0.01655,-0.0108 0.02539,-0.0156 z"
       id="path30455" /><path
       style="fill:none;stroke:#000000;stroke-width:6.1;stroke-linecap:round;stroke-dasharray:none;paint-order:markers stroke fill;stop-color:#000000;stroke-opacity:1"
       d="M 216.44147,141.41992 V 79.786978 c 0,-17.633425 32.3365,-17.690012 32.3365,0.602486 l -0.27231,25.290216"
       id="path918"
       sodipodi:nodetypes="cscc" /><path
       style="fill:none;stroke:#000000;stroke-width:5.91507;stroke-linecap:round;stroke-dasharray:none;stroke-opacity:1;paint-order:markers stroke fill;stop-color:#000000"
       d="m 206.27687,126.05636 0.92419,-59.148264 c 0.22582,-14.452584 31.35614,-14.7063 31.35614,0.58422 l -0.26405,24.52348"
       id="path1018"
       sodipodi:nodetypes="cscc" /><path
       style="fill:none;stroke:#000000;stroke-width:6.1;stroke-linecap:round;stroke-linejoin:round;stroke-dasharray:none;stroke-opacity:1;paint-order:markers stroke fill;stop-color:#000000"
       d="m 206.88911,86.872882 8.93027,11.200581"
       id="path1024"
       sodipodi:nodetypes="cc" /><path
       style="fill:none;stroke:#000000;stroke-width:6.1;stroke-linecap:round;stroke-linejoin:round;stroke-dasharray:none;paint-order:markers stroke fill;stop-color:#000000;stroke-opacity:1"
       d="m 240.75494,184.11239 0.37602,17.57893 c 0,0 0.46861,3.66896 -4.07573,10.32145 -4.54434,6.65248 -12.85981,7.68976 -12.85981,7.68976 L 37.162652,219.3816 c 0,0 -5.863063,-0.32529 -11.147915,-6.01963 -5.284851,-5.69434 -4.609305,-11.24591 -4.609305,-11.24591 l -0.09628,-18.16413"
       id="path1030"
       sodipodi:nodetypes="cczcczcc" /><path
       style="fill:none;stroke:#000000;stroke-width:6.1;stroke-linecap:round;stroke-linejoin:round;stroke-dasharray:none;paint-order:markers stroke fill;stop-color:#000000;stroke-opacity:1"
       d="M 44.681468,98.587379 H 206.70607"
       id="path1096" /><path
       style="color:#000000;fill:#000000;fill-opacity:1;stroke:#fffe76;stroke-width:0.4;stroke-linecap:round;stroke-linejoin:round;stroke-dasharray:none;stroke-opacity:1;paint-order:markers stroke fill"
       d="m 84.507816,107.88867 c -4.902933,0 -9.369818,1.03668 -12.84375,2.91016 -3.422179,1.84556 -6.147285,4.77754 -6.228515,8.54297 a 2.8499999,2.8499999 0 0 0 -0.0293,0.0703 v 0.0918 7.41992 a 2.8499999,2.8499999 0 0 0 0.04102,0.10156 2.8499999,2.8499999 0 0 0 -0.03906,0.10352 c 0.1037,3.82733 2.917687,6.74052 6.404297,8.58007 3.48661,1.83955 7.946541,2.8493 12.824219,2.83008 4.87768,-0.0192 9.314661,-1.06187 12.763672,-2.93554 3.449001,-1.87368 6.207021,-4.85084 6.207021,-8.67969 v -7.4082 c 10e-6,-0.004 0.002,-0.008 0.002,-0.0117 -1e-5,-0.004 -0.002,-0.008 -0.002,-0.0117 v -0.0801 a 2.8499999,2.8499999 0 0 0 -0.15429,-0.7793 c -0.3975,-3.41149 -2.90566,-6.11044 -6.10156,-7.83398 -3.473931,-1.87348 -7.940815,-2.91016 -12.84375,-2.91016 z m 0,5.70117 c 4.072283,0 7.730874,0.9261 10.138672,2.22461 2.407799,1.29852 3.261719,2.69733 3.261719,3.68946 2e-6,0.99211 -0.85392,2.39092 -3.261719,3.68944 -2.407798,1.29852 -6.066386,2.22462 -10.138672,2.22462 -4.072285,0 -7.730873,-0.9261 -10.138671,-2.22462 -2.407799,-1.29852 -3.261721,-2.69733 -3.261719,-3.68944 0,-0.99213 0.85392,-2.39094 3.261719,-3.68946 2.407798,-1.29851 6.066389,-2.22461 10.138671,-2.22461 z m 12.869141,14.60352 c -0.452879,0.76684 -1.192819,1.5831 -2.697266,2.40039 -2.385002,1.29565 -6.01348,2.22818 -10.064453,2.24413 -4.050971,0.016 -7.709938,-0.88644 -10.142578,-2.16991 -1.569417,-0.82804 -2.339992,-1.6714 -2.8125,-2.46094 0.0013,7e-4 0.0026,0.001 0.0039,0.002 3.473933,1.87348 7.940813,2.90821 12.84375,2.90821 4.902938,0 9.369818,-1.03473 12.84375,-2.90821 0.0088,-0.005 0.01655,-0.0108 0.02539,-0.0156 z"
       id="path19267" /><path
       style="color:#000000;fill:#fac24f;fill-opacity:1;stroke:#fac24f;stroke-width:0.4;stroke-linecap:round;stroke-linejoin:round;stroke-dasharray:none;stroke-opacity:1;paint-order:markers stroke fill"
       d="m 84.507837,113.58984 c 4.072283,0 7.730874,0.9261 10.138672,2.22461 2.407799,1.29852 3.261719,2.69733 3.261719,3.68946 2e-6,0.99211 -0.85392,2.39092 -3.261719,3.68944 -2.407798,1.29852 -6.066386,2.22462 -10.138672,2.22462 -4.072285,0 -7.730873,-0.9261 -10.138671,-2.22462 -2.407799,-1.29852 -3.261721,-2.69733 -3.261719,-3.68944 0,-0.99213 0.85392,-2.39094 3.261719,-3.68946 2.407798,-1.29851 6.066389,-2.22461 10.138671,-2.22461 z"
       id="path24353" /><path
       style="color:#000000;fill:#fac24f;fill-opacity:1;stroke:#fac24f;stroke-width:0.4;stroke-linecap:round;stroke-linejoin:round;stroke-dasharray:none;stroke-opacity:1;paint-order:markers stroke fill"
       d="m 97.376957,128.19336 c -0.452879,0.76684 -1.192819,1.5831 -2.697266,2.40039 -2.385002,1.29565 -6.01348,2.22818 -10.064453,2.24413 -4.050971,0.016 -7.709938,-0.88644 -10.142578,-2.16991 -1.569417,-0.82804 -2.339992,-1.6714 -2.8125,-2.46094 0.0013,7e-4 0.0026,0.001 0.0039,0.002 3.473933,1.87348 7.940813,2.90821 12.84375,2.90821 4.902938,0 9.369818,-1.03473 12.84375,-2.90821 0.0088,-0.005 0.01655,-0.0108 0.02539,-0.0156 z"
       id="path24355" /><path
       id="path19265-4"
       style="color:#000000;fill:#fecf56;fill-opacity:1;stroke:none;stroke-width:0.5;stroke-linecap:round;stroke-linejoin:round;stroke-dasharray:none;stroke-opacity:1;paint-order:markers stroke fill"
       d="m 79.104364,152.90848 -14.201815,9.83549 c -0.782059,-0.24105 -1.505396,-0.51638 -2.157398,-0.81772 l 13.852906,-9.59388 m 4.6e-4,-2.3e-4 c 0.862735,0.16566 1.723203,0.3335 2.505891,0.57654"
       sodipodi:nodetypes="cccccc" /><path
       id="path24353-12"
       style="color:#000000;fill:none;fill-opacity:1;stroke:#fffe76;stroke-width:0.4;stroke-linecap:round;stroke-linejoin:round;stroke-dasharray:none;stroke-opacity:1;paint-order:markers stroke fill"
       d="M 139.4987 182.81225 C 139.22819 182.68822 138.96979 182.55975 138.72439 182.4274 C 136.3166 181.12888 135.46267 179.73007 135.46268 178.73796 C 135.46268 177.74583 136.3166 176.34702 138.72439 175.0485 C 141.13219 173.74999 144.79078 172.82389 148.86307 172.82389 L 148.86307 172.82389 C 152.93535 172.82389 156.59394 173.74999 159.00174 175.0485 C 161.40954 176.34702 162.26346 177.74583 162.26346 178.73796 C 162.26346 179.73007 161.40954 181.12888 159.00174 182.4274 C 158.75634 182.55975 158.49794 182.68822 158.22743 182.81225 " /><path
       id="path29117"
       style="color:#000000;fill:none;fill-opacity:1;stroke:#fffe76;stroke-width:0.4;stroke-linecap:round;stroke-linejoin:round;stroke-dasharray:none;stroke-opacity:1;paint-order:markers stroke fill"
       d="M 158.22956 182.81127 L 158.22743 182.81225 " /><path
       id="path29149"
       style="color:#000000;fill:none;fill-opacity:1;stroke:#fffe76;stroke-width:0.4;stroke-linecap:round;stroke-linejoin:round;stroke-dasharray:none;stroke-opacity:1;paint-order:markers stroke fill"
       d="M 139.4987 182.81225 L 139.49657 182.81127 " /><path
       id="path30673"
       style="color:#000000;fill:#fffe76;fill-opacity:1;stroke:#fffe76;stroke-width:1.6;stroke-linecap:butt;stroke-linejoin:round;stroke-dasharray:none;stroke-opacity:1;paint-order:markers stroke fill;filter:url(#filter30675)"
       d="m 167.7986,183.01113 v -4.06146 c 1e-5,-0.004 0.002,-0.008 0.002,-0.0117 -1e-5,-0.004 -0.002,-0.008 -0.002,-0.0117 v -0.0801 c -0.0148,-0.2657 -0.0667,-0.52801 -0.15429,-0.7793 -0.3975,-3.41149 -2.90566,-6.11044 -6.10156,-7.83398 -3.47393,-1.87348 -7.94082,-2.91016 -12.84375,-2.91016 l 6e-5,-1e-5 c -4.90294,0 -9.36982,1.03668 -12.84375,2.91016 -3.42218,1.84556 -6.14729,4.77754 -6.22852,8.54297 -0.0101,0.0233 -0.0198,0.0467 -0.0293,0.0703 v 0.0918 4.07326"
       sodipodi:nodetypes="ccssccsccscccc" /><path
       id="path29113"
       style="color:#000000;fill:#000000;fill-opacity:1;stroke:#fffe76;stroke-width:0.4;stroke-linecap:butt;stroke-linejoin:round;stroke-dasharray:none;stroke-opacity:1;paint-order:markers stroke fill"
       d="m 167.7986,183.01113 v -4.06146 c 1e-5,-0.004 0.002,-0.008 0.002,-0.0117 -1e-5,-0.004 -0.002,-0.008 -0.002,-0.0117 v -0.0801 c -0.0148,-0.2657 -0.0667,-0.52801 -0.15429,-0.7793 -0.3975,-3.41149 -2.90566,-6.11044 -6.10156,-7.83398 -3.47393,-1.87348 -7.94082,-2.91016 -12.84375,-2.91016 l 6e-5,-1e-5 c -4.90294,0 -9.36982,1.03668 -12.84375,2.91016 -3.42218,1.84556 -6.14729,4.77754 -6.22852,8.54297 -0.0101,0.0233 -0.0198,0.0467 -0.0293,0.0703 v 0.0918 4.07326"
       sodipodi:nodetypes="ccssccsccscccc" /><path
       id="path29277"
       style="opacity:1;fill:#fac24f;fill-opacity:1;stroke:#fac24f;stroke-width:0.4;stroke-linecap:round;stroke-linejoin:round;stroke-dasharray:none;stroke-opacity:1;paint-order:markers stroke fill;stop-color:#000000"
       d="m 139.29657,182.99435 18.76898,0.0169 m 0,2e-5 c 0.26974,-0.12373 0.52743,-0.25187 0.77218,-0.38387 2.4078,-1.29852 3.26172,-2.69733 3.26172,-3.68944 0,-0.99213 -0.85392,-2.39094 -3.26172,-3.68946 -2.4078,-1.29851 -6.06639,-2.22461 -10.13867,-2.22461 -4.07229,0 -7.73088,0.9261 -10.13868,2.22461 -2.40779,1.29852 -3.26171,2.69733 -3.26171,3.68946 -10e-6,0.99211 0.85392,2.39092 3.26171,3.68944 0.24475,0.132 0.50244,0.26014 0.77218,0.38387 z"
       sodipodi:nodetypes="ccccsssssscc" /><path
       id="path29220"
       style="opacity:1;fill:#fedd56;fill-opacity:1;stroke:#fedd56;stroke-width:0.4;stroke-linecap:round;stroke-linejoin:miter;stroke-dasharray:none;stroke-opacity:1;paint-order:markers stroke fill;stop-color:#000000"
       d="m 142.61147,183.01025 -3.3149,-0.0159 c -0.013,-0.007 0.0123,0.005 -4e-5,-5e-4 l 13.85315,-9.59401 c 0.86298,0.16553 1.72345,0.33337 2.50611,0.57631 l -13.04436,9.03378"
       sodipodi:nodetypes="cccccc" /><path
       id="path19265"
       style="color:#000000;fill:#fedd56;fill-opacity:1;stroke:#fedd56;stroke-width:0.4;stroke-linecap:round;stroke-linejoin:miter;stroke-dasharray:none;stroke-opacity:1;paint-order:normal"
       d="m 91.464592,114.54288 -14.201837,9.83539 c -0.782059,-0.24105 -1.505396,-0.51638 -2.157398,-0.81772 l 13.853136,-9.59399 c 0.862965,0.16554 1.723433,0.33338 2.506099,0.57632 z"
       sodipodi:nodetypes="ccccc" /><path
       id="path19265-1"
       style="color:#000000;fill:#fedd56;fill-opacity:1;stroke:#fedd56;stroke-width:0.4;stroke-linecap:round;stroke-linejoin:miter;stroke-dasharray:none;stroke-opacity:1;paint-order:normal"
       d="m 80.316965,151.58217 -14.201837,9.83539 c -0.782059,-0.24105 -1.505396,-0.51638 -2.157398,-0.81772 l 13.853136,-9.59399 c 0.862965,0.16554 1.723433,0.33338 2.506099,0.57632 z"
       sodipodi:nodetypes="ccccc" /><path
       style="color:#000000;fill:none;fill-opacity:1;stroke:#fffe76;stroke-width:1.6;stroke-linecap:round;stroke-linejoin:round;stroke-dasharray:none;stroke-opacity:1;paint-order:markers stroke fill;filter:url(#filter30457-4)"
       d="m 71.886286,146.16213 c -4.902933,0 -9.369818,1.03668 -12.84375,2.91016 -3.422179,1.84556 -6.147285,4.77754 -6.228515,8.54297 a 2.8499999,2.8499999 0 0 0 -0.0293,0.0703 v 0.0918 7.41992 a 2.8499999,2.8499999 0 0 0 0.04102,0.10156 2.8499999,2.8499999 0 0 0 -0.03906,0.10352 c 0.1037,3.82733 2.917687,6.74052 6.404297,8.58007 3.48661,1.83955 7.946541,2.8493 12.824219,2.83008 4.87768,-0.0192 9.314661,-1.06187 12.763672,-2.93554 3.449001,-1.87368 6.207021,-4.85084 6.207021,-8.67969 v -7.4082 c 1e-5,-0.004 0.002,-0.008 0.002,-0.0117 -10e-6,-0.004 -0.002,-0.008 -0.002,-0.0117 v -0.0801 a 2.8499999,2.8499999 0 0 0 -0.15429,-0.7793 c -0.3975,-3.41149 -2.90566,-6.11044 -6.10156,-7.83398 -3.473931,-1.87348 -7.940815,-2.91016 -12.84375,-2.91016 z m 0,5.70117 c 4.072283,0 7.730874,0.9261 10.138672,2.22461 2.407799,1.29852 3.261719,2.69733 3.261719,3.68946 2e-6,0.99211 -0.85392,2.39092 -3.261719,3.68944 -2.407798,1.29852 -6.066386,2.22462 -10.138672,2.22462 -4.072285,0 -7.730873,-0.9261 -10.138671,-2.22462 -2.407799,-1.29852 -3.261721,-2.69733 -3.261719,-3.68944 0,-0.99213 0.85392,-2.39094 3.261719,-3.68946 2.407798,-1.29851 6.066389,-2.22461 10.138671,-2.22461 z m 12.869141,14.60352 c -0.452879,0.76684 -1.192819,1.5831 -2.697266,2.40039 -2.385002,1.29565 -6.01348,2.22818 -10.064453,2.24413 -4.050971,0.016 -7.709938,-0.88644 -10.142578,-2.16991 -1.569417,-0.82804 -2.339992,-1.6714 -2.8125,-2.46094 0.0013,7e-4 0.0026,0.001 0.0039,0.002 3.473933,1.87348 7.940813,2.90821 12.84375,2.90821 4.902938,0 9.369818,-1.03473 12.84375,-2.90821 0.0088,-0.005 0.01655,-0.0108 0.02539,-0.0156 z"
       id="path30455-4" /><path
       style="color:#000000;fill:#000000;fill-opacity:1;stroke:#fffe76;stroke-width:0.4;stroke-linecap:round;stroke-linejoin:round;stroke-dasharray:none;stroke-opacity:1;paint-order:markers stroke fill"
       d="m 71.886286,146.16213 c -4.902933,0 -9.369818,1.03668 -12.84375,2.91016 -3.422179,1.84556 -6.147285,4.77754 -6.228515,8.54297 a 2.8499999,2.8499999 0 0 0 -0.0293,0.0703 v 0.0918 7.41992 a 2.8499999,2.8499999 0 0 0 0.04102,0.10156 2.8499999,2.8499999 0 0 0 -0.03906,0.10352 c 0.1037,3.82733 2.917687,6.74052 6.404297,8.58007 3.48661,1.83955 7.946541,2.8493 12.824219,2.83008 4.87768,-0.0192 9.314661,-1.06187 12.763672,-2.93554 3.449001,-1.87368 6.207021,-4.85084 6.207021,-8.67969 v -7.4082 c 1e-5,-0.004 0.002,-0.008 0.002,-0.0117 -10e-6,-0.004 -0.002,-0.008 -0.002,-0.0117 v -0.0801 a 2.8499999,2.8499999 0 0 0 -0.15429,-0.7793 c -0.3975,-3.41149 -2.90566,-6.11044 -6.10156,-7.83398 -3.473931,-1.87348 -7.940815,-2.91016 -12.84375,-2.91016 z m 0,5.70117 c 4.072283,0 7.730874,0.9261 10.138672,2.22461 2.407799,1.29852 3.261719,2.69733 3.261719,3.68946 2e-6,0.99211 -0.85392,2.39092 -3.261719,3.68944 -2.407798,1.29852 -6.066386,2.22462 -10.138672,2.22462 -4.072285,0 -7.730873,-0.9261 -10.138671,-2.22462 -2.407799,-1.29852 -3.261721,-2.69733 -3.261719,-3.68944 0,-0.99213 0.85392,-2.39094 3.261719,-3.68946 2.407798,-1.29851 6.066389,-2.22461 10.138671,-2.22461 z m 12.869141,14.60352 c -0.452879,0.76684 -1.192819,1.5831 -2.697266,2.40039 -2.385002,1.29565 -6.01348,2.22818 -10.064453,2.24413 -4.050971,0.016 -7.709938,-0.88644 -10.142578,-2.16991 -1.569417,-0.82804 -2.339992,-1.6714 -2.8125,-2.46094 0.0013,7e-4 0.0026,0.001 0.0039,0.002 3.473933,1.87348 7.940813,2.90821 12.84375,2.90821 4.902938,0 9.369818,-1.03473 12.84375,-2.90821 0.0088,-0.005 0.01655,-0.0108 0.02539,-0.0156 z"
       id="path19267-6" /><path
       style="color:#000000;fill:#fac24f;fill-opacity:1;stroke:#fac24f;stroke-width:0.4;stroke-linecap:round;stroke-linejoin:round;stroke-dasharray:none;stroke-opacity:1;paint-order:markers stroke fill"
       d="m 71.886286,151.8633 c 4.072283,0 7.730874,0.9261 10.138672,2.22461 2.407799,1.29852 3.261719,2.69733 3.261719,3.68946 2e-6,0.99211 -0.85392,2.39092 -3.261719,3.68944 -2.407798,1.29852 -6.066386,2.22462 -10.138672,2.22462 -4.072285,0 -7.730873,-0.9261 -10.138671,-2.22462 -2.407799,-1.29852 -3.261721,-2.69733 -3.261719,-3.68944 0,-0.99213 0.85392,-2.39094 3.261719,-3.68946 2.407798,-1.29851 6.066389,-2.22461 10.138671,-2.22461 z"
       id="path24353-3" /><path
       style="color:#000000;fill:#fac24f;fill-opacity:1;stroke:#fac24f;stroke-width:0.4;stroke-linecap:round;stroke-linejoin:round;stroke-dasharray:none;stroke-opacity:1;paint-order:markers stroke fill"
       d="m 84.755427,166.46682 c -0.452879,0.76684 -1.192819,1.5831 -2.697266,2.40039 -2.385002,1.29565 -6.01348,2.22818 -10.064453,2.24413 -4.050971,0.016 -7.709938,-0.88644 -10.142578,-2.16991 -1.569417,-0.82804 -2.339992,-1.6714 -2.8125,-2.46094 0.0013,7e-4 0.0026,0.001 0.0039,0.002 3.473933,1.87348 7.940813,2.90821 12.84375,2.90821 4.902938,0 9.369818,-1.03473 12.84375,-2.90821 0.0088,-0.005 0.01655,-0.0108 0.02539,-0.0156 z"
       id="path24355-6" /><path
       style="color:#000000;fill:none;fill-opacity:1;stroke:#fffe76;stroke-width:1.6;stroke-linecap:round;stroke-linejoin:round;stroke-dasharray:none;stroke-opacity:1;paint-order:markers stroke fill;filter:url(#filter30457-3)"
       d="m 127.53399,132.04161 c -4.90293,0 -9.36982,1.03668 -12.84375,2.91016 -3.42218,1.84556 -6.14729,4.77754 -6.22852,8.54297 a 2.8499999,2.8499999 0 0 0 -0.0293,0.0703 v 0.0918 7.41992 a 2.8499999,2.8499999 0 0 0 0.041,0.10156 2.8499999,2.8499999 0 0 0 -0.0391,0.10352 c 0.1037,3.82733 2.91769,6.74052 6.4043,8.58007 3.48661,1.83955 7.94654,2.8493 12.82422,2.83008 4.87768,-0.0192 9.31466,-1.06187 12.76367,-2.93554 3.449,-1.87368 6.20702,-4.85084 6.20702,-8.67969 v -7.4082 c 1e-5,-0.004 0.002,-0.008 0.002,-0.0117 -10e-6,-0.004 -0.002,-0.008 -0.002,-0.0117 v -0.0801 a 2.8499999,2.8499999 0 0 0 -0.15429,-0.7793 c -0.3975,-3.41149 -2.90566,-6.11044 -6.10156,-7.83398 -3.47393,-1.87348 -7.94081,-2.91016 -12.84375,-2.91016 z m 0,5.70117 c 4.07228,0 7.73087,0.9261 10.13867,2.22461 2.4078,1.29852 3.26172,2.69733 3.26172,3.68946 0,0.99211 -0.85392,2.39092 -3.26172,3.68944 -2.4078,1.29852 -6.06639,2.22462 -10.13867,2.22462 -4.07229,0 -7.73087,-0.9261 -10.13867,-2.22462 -2.4078,-1.29852 -3.26172,-2.69733 -3.26172,-3.68944 0,-0.99213 0.85392,-2.39094 3.26172,-3.68946 2.4078,-1.29851 6.06639,-2.22461 10.13867,-2.22461 z m 12.86914,14.60352 c -0.45288,0.76684 -1.19282,1.5831 -2.69727,2.40039 -2.385,1.29565 -6.01348,2.22818 -10.06445,2.24413 -4.05097,0.016 -7.70994,-0.88644 -10.14258,-2.16991 -1.56941,-0.82804 -2.33999,-1.6714 -2.8125,-2.46094 0.001,7e-4 0.003,0.001 0.004,0.002 3.47394,1.87348 7.94082,2.90821 12.84375,2.90821 4.90294,0 9.36982,-1.03473 12.84375,-2.90821 0.009,-0.005 0.0165,-0.0108 0.0254,-0.0156 z"
       id="path30455-6" /><path
       style="color:#000000;fill:#000000;fill-opacity:1;stroke:#fffe76;stroke-width:0.4;stroke-linecap:round;stroke-linejoin:round;stroke-dasharray:none;stroke-opacity:1;paint-order:markers stroke fill"
       d="m 127.53399,132.04161 c -4.90293,0 -9.36982,1.03668 -12.84375,2.91016 -3.42218,1.84556 -6.14729,4.77754 -6.22852,8.54297 a 2.8499999,2.8499999 0 0 0 -0.0293,0.0703 v 0.0918 7.41992 a 2.8499999,2.8499999 0 0 0 0.041,0.10156 2.8499999,2.8499999 0 0 0 -0.0391,0.10352 c 0.1037,3.82733 2.91769,6.74052 6.4043,8.58007 3.48661,1.83955 7.94654,2.8493 12.82422,2.83008 4.87768,-0.0192 9.31466,-1.06187 12.76367,-2.93554 3.449,-1.87368 6.20702,-4.85084 6.20702,-8.67969 v -7.4082 c 1e-5,-0.004 0.002,-0.008 0.002,-0.0117 -10e-6,-0.004 -0.002,-0.008 -0.002,-0.0117 v -0.0801 a 2.8499999,2.8499999 0 0 0 -0.15429,-0.7793 c -0.3975,-3.41149 -2.90566,-6.11044 -6.10156,-7.83398 -3.47393,-1.87348 -7.94081,-2.91016 -12.84375,-2.91016 z m 0,5.70117 c 4.07228,0 7.73087,0.9261 10.13867,2.22461 2.4078,1.29852 3.26172,2.69733 3.26172,3.68946 0,0.99211 -0.85392,2.39092 -3.26172,3.68944 -2.4078,1.29852 -6.06639,2.22462 -10.13867,2.22462 -4.07229,0 -7.73087,-0.9261 -10.13867,-2.22462 -2.4078,-1.29852 -3.26172,-2.69733 -3.26172,-3.68944 0,-0.99213 0.85392,-2.39094 3.26172,-3.68946 2.4078,-1.29851 6.06639,-2.22461 10.13867,-2.22461 z m 12.86914,14.60352 c -0.45288,0.76684 -1.19282,1.5831 -2.69727,2.40039 -2.385,1.29565 -6.01348,2.22818 -10.06445,2.24413 -4.05097,0.016 -7.70994,-0.88644 -10.14258,-2.16991 -1.56941,-0.82804 -2.33999,-1.6714 -2.8125,-2.46094 0.001,7e-4 0.003,0.001 0.004,0.002 3.47394,1.87348 7.94082,2.90821 12.84375,2.90821 4.90294,0 9.36982,-1.03473 12.84375,-2.90821 0.009,-0.005 0.0165,-0.0108 0.0254,-0.0156 z"
       id="path19267-5" /><path
       style="color:#000000;fill:#fac24f;fill-opacity:1;stroke:#fac24f;stroke-width:0.4;stroke-linecap:round;stroke-linejoin:round;stroke-dasharray:none;stroke-opacity:1;paint-order:markers stroke fill"
       d="m 127.53399,137.74278 c 4.07228,0 7.73087,0.9261 10.13867,2.22461 2.4078,1.29852 3.26172,2.69733 3.26172,3.68946 0,0.99211 -0.85392,2.39092 -3.26172,3.68944 -2.4078,1.29852 -6.06639,2.22462 -10.13867,2.22462 -4.07229,0 -7.73087,-0.9261 -10.13867,-2.22462 -2.4078,-1.29852 -3.26172,-2.69733 -3.26172,-3.68944 0,-0.99213 0.85392,-2.39094 3.26172,-3.68946 2.4078,-1.29851 6.06639,-2.22461 10.13867,-2.22461 z"
       id="path24353-9" /><path
       style="color:#000000;fill:#fac24f;fill-opacity:1;stroke:#fac24f;stroke-width:0.4;stroke-linecap:round;stroke-linejoin:round;stroke-dasharray:none;stroke-opacity:1;paint-order:markers stroke fill"
       d="m 140.40313,152.3463 c -0.45288,0.76684 -1.19282,1.5831 -2.69727,2.40039 -2.385,1.29565 -6.01348,2.22818 -10.06445,2.24413 -4.05097,0.016 -7.70994,-0.88644 -10.14258,-2.16991 -1.56941,-0.82804 -2.33999,-1.6714 -2.8125,-2.46094 0.001,7e-4 0.003,0.001 0.004,0.002 3.47394,1.87348 7.94082,2.90821 12.84375,2.90821 4.90294,0 9.36982,-1.03473 12.84375,-2.90821 0.009,-0.005 0.0165,-0.0108 0.0254,-0.0156 z"
       id="path24355-1" /><path
       style="color:#000000;fill:none;fill-opacity:1;stroke:#fffe76;stroke-width:1.6;stroke-linecap:round;stroke-linejoin:round;stroke-dasharray:none;stroke-opacity:1;paint-order:markers stroke fill;filter:url(#filter30457-7)"
       d="m 163.99062,106.94558 c -4.90294,0 -9.36982,1.03668 -12.84375,2.91016 -3.42218,1.84556 -6.14729,4.77754 -6.22852,8.54297 a 2.8499999,2.8499999 0 0 0 -0.0293,0.0703 v 0.0918 7.41992 a 2.8499999,2.8499999 0 0 0 0.041,0.10156 2.8499999,2.8499999 0 0 0 -0.0391,0.10352 c 0.1037,3.82733 2.91769,6.74052 6.4043,8.58007 3.48661,1.83955 7.94654,2.8493 12.82422,2.83008 4.87768,-0.0192 9.31466,-1.06187 12.76367,-2.93554 3.449,-1.87368 6.20702,-4.85084 6.20702,-8.67969 v -7.4082 c 1e-5,-0.004 0.002,-0.008 0.002,-0.0117 -1e-5,-0.004 -0.002,-0.008 -0.002,-0.0117 v -0.0801 a 2.8499999,2.8499999 0 0 0 -0.15429,-0.7793 c -0.3975,-3.41149 -2.90566,-6.11044 -6.10156,-7.83398 -3.47393,-1.87348 -7.94081,-2.91016 -12.84375,-2.91016 z m 0,5.70117 c 4.07228,0 7.73087,0.9261 10.13867,2.22461 2.4078,1.29852 3.26172,2.69733 3.26172,3.68946 0,0.99211 -0.85392,2.39092 -3.26172,3.68944 -2.4078,1.29852 -6.06639,2.22462 -10.13867,2.22462 -4.07229,0 -7.73088,-0.9261 -10.13867,-2.22462 -2.4078,-1.29852 -3.26173,-2.69733 -3.26172,-3.68944 0,-0.99213 0.85392,-2.39094 3.26172,-3.68946 2.40779,-1.29851 6.06638,-2.22461 10.13867,-2.22461 z m 12.86914,14.60352 c -0.45288,0.76684 -1.19282,1.5831 -2.69727,2.40039 -2.385,1.29565 -6.01348,2.22818 -10.06445,2.24413 -4.05097,0.016 -7.70994,-0.88644 -10.14258,-2.16991 -1.56942,-0.82804 -2.33999,-1.6714 -2.8125,-2.46094 0.001,7e-4 0.003,10e-4 0.004,0.002 3.47393,1.87348 7.94081,2.90821 12.84375,2.90821 4.90294,0 9.36982,-1.03473 12.84375,-2.90821 0.009,-0.005 0.0165,-0.0108 0.0254,-0.0156 z"
       id="path30455-0" /><path
       style="color:#000000;fill:#000000;fill-opacity:1;stroke:#fffe76;stroke-width:0.4;stroke-linecap:round;stroke-linejoin:round;stroke-dasharray:none;stroke-opacity:1;paint-order:markers stroke fill"
       d="m 163.99062,106.94558 c -4.90294,0 -9.36982,1.03668 -12.84375,2.91016 -3.42218,1.84556 -6.14729,4.77754 -6.22852,8.54297 a 2.8499999,2.8499999 0 0 0 -0.0293,0.0703 v 0.0918 7.41992 a 2.8499999,2.8499999 0 0 0 0.041,0.10156 2.8499999,2.8499999 0 0 0 -0.0391,0.10352 c 0.1037,3.82733 2.91769,6.74052 6.4043,8.58007 3.48661,1.83955 7.94654,2.8493 12.82422,2.83008 4.87768,-0.0192 9.31466,-1.06187 12.76367,-2.93554 3.449,-1.87368 6.20702,-4.85084 6.20702,-8.67969 v -7.4082 c 1e-5,-0.004 0.002,-0.008 0.002,-0.0117 -1e-5,-0.004 -0.002,-0.008 -0.002,-0.0117 v -0.0801 a 2.8499999,2.8499999 0 0 0 -0.15429,-0.7793 c -0.3975,-3.41149 -2.90566,-6.11044 -6.10156,-7.83398 -3.47393,-1.87348 -7.94081,-2.91016 -12.84375,-2.91016 z m 0,5.70117 c 4.07228,0 7.73087,0.9261 10.13867,2.22461 2.4078,1.29852 3.26172,2.69733 3.26172,3.68946 0,0.99211 -0.85392,2.39092 -3.26172,3.68944 -2.4078,1.29852 -6.06639,2.22462 -10.13867,2.22462 -4.07229,0 -7.73088,-0.9261 -10.13867,-2.22462 -2.4078,-1.29852 -3.26173,-2.69733 -3.26172,-3.68944 0,-0.99213 0.85392,-2.39094 3.26172,-3.68946 2.40779,-1.29851 6.06638,-2.22461 10.13867,-2.22461 z m 12.86914,14.60352 c -0.45288,0.76684 -1.19282,1.5831 -2.69727,2.40039 -2.385,1.29565 -6.01348,2.22818 -10.06445,2.24413 -4.05097,0.016 -7.70994,-0.88644 -10.14258,-2.16991 -1.56942,-0.82804 -2.33999,-1.6714 -2.8125,-2.46094 0.001,7e-4 0.003,10e-4 0.004,0.002 3.47393,1.87348 7.94081,2.90821 12.84375,2.90821 4.90294,0 9.36982,-1.03473 12.84375,-2.90821 0.009,-0.005 0.0165,-0.0108 0.0254,-0.0156 z"
       id="path19267-1" /><path
       style="color:#000000;fill:#fac24f;fill-opacity:1;stroke:#fac24f;stroke-width:0.4;stroke-linecap:round;stroke-linejoin:round;stroke-dasharray:none;stroke-opacity:1;paint-order:markers stroke fill"
       d="m 163.99062,112.64675 c 4.07228,0 7.73087,0.9261 10.13867,2.22461 2.4078,1.29852 3.26172,2.69733 3.26172,3.68946 0,0.99211 -0.85392,2.39092 -3.26172,3.68944 -2.4078,1.29852 -6.06639,2.22462 -10.13867,2.22462 -4.07229,0 -7.73088,-0.9261 -10.13867,-2.22462 -2.4078,-1.29852 -3.26173,-2.69733 -3.26172,-3.68944 0,-0.99213 0.85392,-2.39094 3.26172,-3.68946 2.40779,-1.29851 6.06638,-2.22461 10.13867,-2.22461 z"
       id="path24353-6" /><path
       style="color:#000000;fill:#fac24f;fill-opacity:1;stroke:#fac24f;stroke-width:0.4;stroke-linecap:round;stroke-linejoin:round;stroke-dasharray:none;stroke-opacity:1;paint-order:markers stroke fill"
       d="m 176.85976,127.25027 c -0.45288,0.76684 -1.19282,1.5831 -2.69727,2.40039 -2.385,1.29565 -6.01348,2.22818 -10.06445,2.24413 -4.05097,0.016 -7.70994,-0.88644 -10.14258,-2.16991 -1.56942,-0.82804 -2.33999,-1.6714 -2.8125,-2.46094 0.001,7e-4 0.003,10e-4 0.004,0.002 3.47393,1.87348 7.94081,2.90821 12.84375,2.90821 4.90294,0 9.36982,-1.03473 12.84375,-2.90821 0.009,-0.005 0.0165,-0.0108 0.0254,-0.0156 z"
       id="path24355-17" /><path
       style="color:#000000;fill:none;fill-opacity:1;stroke:#fffe76;stroke-width:1.6;stroke-linecap:round;stroke-linejoin:round;stroke-dasharray:none;stroke-opacity:1;paint-order:markers stroke fill;filter:url(#filter30457-1)"
       d="m 190.66273,139.98244 c -4.90294,0 -9.36982,1.03668 -12.84375,2.91016 -3.42218,1.84556 -6.14729,4.77754 -6.22852,8.54297 a 2.8499999,2.8499999 0 0 0 -0.0293,0.0703 v 0.0918 7.41992 a 2.8499999,2.8499999 0 0 0 0.041,0.10156 2.8499999,2.8499999 0 0 0 -0.0391,0.10352 c 0.1037,3.82733 2.91769,6.74052 6.4043,8.58007 3.48661,1.83955 7.94654,2.8493 12.82422,2.83008 4.87768,-0.0192 9.31466,-1.06187 12.76367,-2.93554 3.449,-1.87368 6.20702,-4.85084 6.20702,-8.67969 v -7.4082 c 1e-5,-0.004 0.002,-0.008 0.002,-0.0117 -1e-5,-0.004 -0.002,-0.008 -0.002,-0.0117 v -0.0801 a 2.8499999,2.8499999 0 0 0 -0.15429,-0.7793 c -0.3975,-3.41149 -2.90566,-6.11044 -6.10156,-7.83398 -3.47393,-1.87348 -7.94082,-2.91016 -12.84375,-2.91016 z m 0,5.70117 c 4.07228,0 7.73087,0.9261 10.13867,2.22461 2.4078,1.29852 3.26172,2.69733 3.26172,3.68946 0,0.99211 -0.85392,2.39092 -3.26172,3.68944 -2.4078,1.29852 -6.06639,2.22462 -10.13867,2.22462 -4.07229,0 -7.73088,-0.9261 -10.13868,-2.22462 -2.40779,-1.29852 -3.26172,-2.69733 -3.26171,-3.68944 0,-0.99213 0.85392,-2.39094 3.26171,-3.68946 2.4078,-1.29851 6.06639,-2.22461 10.13868,-2.22461 z m 12.86914,14.60352 c -0.45288,0.76684 -1.19282,1.5831 -2.69727,2.40039 -2.385,1.29565 -6.01348,2.22818 -10.06445,2.24413 -4.05097,0.016 -7.70994,-0.88644 -10.14258,-2.16991 -1.56942,-0.82804 -2.33999,-1.6714 -2.8125,-2.46094 0.001,7e-4 0.003,10e-4 0.004,0.002 3.47393,1.87348 7.94081,2.90821 12.84375,2.90821 4.90294,0 9.36982,-1.03473 12.84375,-2.90821 0.009,-0.005 0.0165,-0.0108 0.0254,-0.0156 z"
       id="path30455-2" /><path
       style="color:#000000;fill:#000000;fill-opacity:1;stroke:#fffe76;stroke-width:0.4;stroke-linecap:round;stroke-linejoin:round;stroke-dasharray:none;stroke-opacity:1;paint-order:markers stroke fill"
       d="m 190.66273,139.98244 c -4.90294,0 -9.36982,1.03668 -12.84375,2.91016 -3.42218,1.84556 -6.14729,4.77754 -6.22852,8.54297 a 2.8499999,2.8499999 0 0 0 -0.0293,0.0703 v 0.0918 7.41992 a 2.8499999,2.8499999 0 0 0 0.041,0.10156 2.8499999,2.8499999 0 0 0 -0.0391,0.10352 c 0.1037,3.82733 2.91769,6.74052 6.4043,8.58007 3.48661,1.83955 7.94654,2.8493 12.82422,2.83008 4.87768,-0.0192 9.31466,-1.06187 12.76367,-2.93554 3.449,-1.87368 6.20702,-4.85084 6.20702,-8.67969 v -7.4082 c 1e-5,-0.004 0.002,-0.008 0.002,-0.0117 -1e-5,-0.004 -0.002,-0.008 -0.002,-0.0117 v -0.0801 a 2.8499999,2.8499999 0 0 0 -0.15429,-0.7793 c -0.3975,-3.41149 -2.90566,-6.11044 -6.10156,-7.83398 -3.47393,-1.87348 -7.94082,-2.91016 -12.84375,-2.91016 z m 0,5.70117 c 4.07228,0 7.73087,0.9261 10.13867,2.22461 2.4078,1.29852 3.26172,2.69733 3.26172,3.68946 0,0.99211 -0.85392,2.39092 -3.26172,3.68944 -2.4078,1.29852 -6.06639,2.22462 -10.13867,2.22462 -4.07229,0 -7.73088,-0.9261 -10.13868,-2.22462 -2.40779,-1.29852 -3.26172,-2.69733 -3.26171,-3.68944 0,-0.99213 0.85392,-2.39094 3.26171,-3.68946 2.4078,-1.29851 6.06639,-2.22461 10.13868,-2.22461 z m 12.86914,14.60352 c -0.45288,0.76684 -1.19282,1.5831 -2.69727,2.40039 -2.385,1.29565 -6.01348,2.22818 -10.06445,2.24413 -4.05097,0.016 -7.70994,-0.88644 -10.14258,-2.16991 -1.56942,-0.82804 -2.33999,-1.6714 -2.8125,-2.46094 0.001,7e-4 0.003,10e-4 0.004,0.002 3.47393,1.87348 7.94081,2.90821 12.84375,2.90821 4.90294,0 9.36982,-1.03473 12.84375,-2.90821 0.009,-0.005 0.0165,-0.0108 0.0254,-0.0156 z"
       id="path19267-4" /><path
       style="color:#000000;fill:#fac24f;fill-opacity:1;stroke:#fac24f;stroke-width:0.4;stroke-linecap:round;stroke-linejoin:round;stroke-dasharray:none;stroke-opacity:1;paint-order:markers stroke fill"
       d="m 190.66273,145.68361 c 4.07228,0 7.73087,0.9261 10.13867,2.22461 2.4078,1.29852 3.26172,2.69733 3.26172,3.68946 0,0.99211 -0.85392,2.39092 -3.26172,3.68944 -2.4078,1.29852 -6.06639,2.22462 -10.13867,2.22462 -4.07229,0 -7.73088,-0.9261 -10.13868,-2.22462 -2.40779,-1.29852 -3.26172,-2.69733 -3.26171,-3.68944 0,-0.99213 0.85392,-2.39094 3.26171,-3.68946 2.4078,-1.29851 6.06639,-2.22461 10.13868,-2.22461 z"
       id="path24353-7" /><path
       style="color:#000000;fill:#fac24f;fill-opacity:1;stroke:#fac24f;stroke-width:0.4;stroke-linecap:round;stroke-linejoin:round;stroke-dasharray:none;stroke-opacity:1;paint-order:markers stroke fill"
       d="m 203.53187,160.28713 c -0.45288,0.76684 -1.19282,1.5831 -2.69727,2.40039 -2.385,1.29565 -6.01348,2.22818 -10.06445,2.24413 -4.05097,0.016 -7.70994,-0.88644 -10.14258,-2.16991 -1.56942,-0.82804 -2.33999,-1.6714 -2.8125,-2.46094 0.001,7e-4 0.003,10e-4 0.004,0.002 3.47393,1.87348 7.94081,2.90821 12.84375,2.90821 4.90294,0 9.36982,-1.03473 12.84375,-2.90821 0.009,-0.005 0.0165,-0.0108 0.0254,-0.0156 z"
       id="path24355-5" /><path
       style="fill:none;stroke:#000000;stroke-width:6.1;stroke-linecap:round;stroke-linejoin:round;stroke-dasharray:none;stroke-opacity:1;paint-order:markers stroke fill;stop-color:#000000"
       d="M 205.43443,83.439465 H 46.148442 L 36.217299,185.98808 226.50605,185.81327 216.44147,124.44591 v -7.01824 l -9.80961,-14.09077 0.0742,-4.749521"
       id="path1094"
       sodipodi:nodetypes="cccccccc" /><path
       id="path19265-12"
       style="color:#000000;fill:#fedd56;fill-opacity:1;stroke:#fedd56;stroke-width:0.4;stroke-linecap:round;stroke-linejoin:miter;stroke-dasharray:none;stroke-opacity:1;paint-order:normal"
       d="m 78.843062,152.81634 -14.201837,9.83539 c -0.782059,-0.24105 -1.505396,-0.51638 -2.157398,-0.81772 l 13.853136,-9.59399 c 0.862965,0.16554 1.723433,0.33339 2.506099,0.57632 z"
       sodipodi:nodetypes="ccccc" /><path
       id="path19265-22"
       style="color:#000000;fill:#fedd56;fill-opacity:1;stroke:#fedd56;stroke-width:0.4;stroke-linecap:round;stroke-linejoin:miter;stroke-dasharray:none;stroke-opacity:1;paint-order:normal"
       d="m 134.49075,138.69577 -14.20183,9.83539 c -0.78206,-0.24105 -1.50541,-0.51638 -2.1574,-0.81772 l 13.85313,-9.59399 c 0.86296,0.16554 1.72343,0.33338 2.5061,0.57632 z"
       sodipodi:nodetypes="ccccc" /><path
       id="path19265-8"
       style="color:#000000;fill:#fedd56;fill-opacity:1;stroke:#fedd56;stroke-width:0.4;stroke-linecap:round;stroke-linejoin:miter;stroke-dasharray:none;stroke-opacity:1;paint-order:normal"
       d="m 170.94716,113.5999 -14.20184,9.83539 c -0.78206,-0.24105 -1.50539,-0.51638 -2.1574,-0.81772 l 13.85314,-9.59399 c 0.86296,0.16554 1.72343,0.33338 2.5061,0.57632 z"
       sodipodi:nodetypes="ccccc" /><path
       id="path19265-81"
       style="color:#000000;fill:#fedd56;fill-opacity:1;stroke:#fedd56;stroke-width:0.4;stroke-linecap:round;stroke-linejoin:miter;stroke-dasharray:none;stroke-opacity:1;paint-order:normal"
       d="m 197.61951,146.63659 -14.20184,9.83539 c -0.78205,-0.24105 -1.50539,-0.51638 -2.15739,-0.81772 l 13.85313,-9.59399 c 0.86297,0.16554 1.72344,0.33338 2.5061,0.57632 z"
       sodipodi:nodetypes="ccccc" /><path
       id="path31722"
       style="opacity:1;fill:none;fill-opacity:1;stroke:#000000;stroke-width:6.1;stroke-linecap:round;stroke-linejoin:miter;stroke-dasharray:none;stroke-opacity:1;paint-order:normal;stop-color:#000000"
       d="m 227.19773,102.70645 13.55721,81.40594 c 0,0 0.32505,5.58403 -3.65849,11.45688 -3.98354,5.87285 -10.01274,6.0975 -10.01274,6.0975 L 35.429679,201.44212 c 0,0 -6.138909,-0.2595 -10.076919,-4.878 -3.938011,-4.6185 -4.043605,-12.61219 -4.043605,-12.61219 L 30.680048,82.091595 c 0,0 0.453851,-5.050456 5.267667,-9.165994 4.813816,-4.115538 10.200727,-4.441056 10.200727,-4.441056 H 206.63829 l 14.67503,9.8e-5 z"
       sodipodi:nodetypes="ccsccsccscccc" /></g></svg>
